<mxfile host="app.diagrams.net" agent="Mozilla/5.0 (Windows NT 10.0; Win64; x64) AppleWebKit/537.36 (KHTML, like Gecko) Chrome/130.0.0.0 Safari/537.36" version="24.8.1">
  <diagram name="Page-1" id="INcQwv8mija4ucMrT-el">
    <mxGraphModel dx="1050" dy="541" grid="1" gridSize="10" guides="1" tooltips="1" connect="1" arrows="1" fold="1" page="1" pageScale="1" pageWidth="850" pageHeight="1100" math="0" shadow="0">
      <root>
        <mxCell id="0" />
        <mxCell id="1" parent="0" />
        <mxCell id="y-JBVXZGv05K-dpyjluo-1" value="UI" style="rounded=1;whiteSpace=wrap;html=1;" vertex="1" parent="1">
          <mxGeometry x="70" y="20" width="700" height="60" as="geometry" />
        </mxCell>
        <mxCell id="y-JBVXZGv05K-dpyjluo-2" value="Registeration&lt;div&gt;Service&lt;/div&gt;" style="whiteSpace=wrap;html=1;aspect=fixed;" vertex="1" parent="1">
          <mxGeometry x="40" y="150" width="100" height="100" as="geometry" />
        </mxCell>
        <mxCell id="y-JBVXZGv05K-dpyjluo-6" value="" style="curved=1;endArrow=classic;html=1;rounded=0;entryX=0.073;entryY=1.09;entryDx=0;entryDy=0;entryPerimeter=0;" edge="1" parent="1" target="y-JBVXZGv05K-dpyjluo-1">
          <mxGeometry width="50" height="50" relative="1" as="geometry">
            <mxPoint x="130" y="150" as="sourcePoint" />
            <mxPoint x="180" y="100" as="targetPoint" />
            <Array as="points">
              <mxPoint x="150" y="110" />
              <mxPoint x="150" y="130" />
              <mxPoint x="130" y="100" />
            </Array>
          </mxGeometry>
        </mxCell>
      </root>
    </mxGraphModel>
  </diagram>
</mxfile>
